<svg xmlns="http://www.w3.org/2000/svg" viewBox="0 0 200 200" fill="none">
  <path d="M50 30L53 40H63L55 46L58 56L50 50L42 56L45 46L37 40H47L50 30Z" fill="white"/>
  <path d="M160 40L163 50H173L165 56L168 66L160 60L152 66L155 56L147 50H157L160 40Z" fill="white"/>
  <path d="M100 110L103 120H113L105 126L108 136L100 130L92 136L95 126L87 120H97L100 110Z" fill="white"/>
  <path d="M30 140L33 150H43L35 156L38 166L30 160L22 166L25 156L17 150H27L30 140Z" fill="white"/>
  <path d="M140 150L143 160H153L145 166L148 176L140 170L132 176L135 166L127 160H137L140 150Z" fill="white"/>
</svg>
